0
SECTION
2
HEADER
9
$ACADVER
1
AC1009
9
$INSUNITS
70
6
0
ENDSEC
0
SECTION
2
TABLES
0
TABLE
2
LAYER
70
8
0
LAYER
2
WALLS
70
0
62
7
6
CONTINUOUS
0
LAYER
2
SERVICES
70
0
62
4
6
CONTINUOUS
0
LAYER
2
TEXT
70
0
62
3
6
CONTINUOUS
0
LAYER
2
DOORS
70
0
62
8
6
CONTINUOUS
0
LAYER
2
_WAYFINDING_SIGN
70
0
62
2
6
CONTINUOUS
0
LAYER
2
_DIRECTIONAL_SIGN
70
0
62
5
6
CONTINUOUS
0
LAYER
2
_IDENTIFICATION_SIGN
70
0
62
6
6
CONTINUOUS
0
LAYER
2
_REGULATORY_SIGN
70
0
62
1
6
CONTINUOUS
0
ENDTAB
0
ENDSEC
0
SECTION
2
BLOCKS
0
BLOCK
8
0
2
SIGN
70
2
10
0
20
0
30
0
3
SIGN
1

0
LWPOLYLINE
8
0
90
4
70
1
10
-0.5
20
0.2
10
0.5
20
0.2
10
0.5
20
0.9
10
-0.5
20
0.9
0
LINE
8
0
10
0
20
0
30
0
11
0
21
0.2
31
0
0
ATTDEF
8
0
10
0
20
1.1
30
0
40
0.25
1
SIGN_NAME
3
Sign name
2
NAME
70
0
0
ENDBLK
8
0
0
BLOCK
8
0
2
DOOR
70
2
10
0
20
0
30
0
3
DOOR
1

0
LINE
8
0
10
0
20
0
30
0
11
0.9
21
0
31
0
0
ARC
8
0
10
0
20
0
30
0
40
0.9
50
0
51
90
0
ENDBLK
8
0
0
BLOCK
8
0
2
SIGN_ASSEMBLY
70
2
10
0
20
0
30
0
3
SIGN_ASSEMBLY
1

0
LINE
8
0
10
-0.6
20
0
30
0
11
0.6
21
0
31
0
0
INSERT
8
0
2
SIGN
10
0
20
0.3
30
0
41
0.8
42
0.8
43
1
50
0
0
ENDBLK
8
0
0
ENDSEC
0
SECTION
2
ENTITIES
0
LWPOLYLINE
8
WALLS
90
5
70
1
10
0
20
0
10
40
20
0
10
40
20
18
42
0.4142
10
36
20
22
10
0
20
22
0
LINE
8
WALLS
10
12
20
0
30
0
11
12
21
14
31
0
0
LINE
8
WALLS
10
12
20
14
30
0
11
26
21
14
31
0
0
LINE
8
WALLS
10
26
20
14
30
0
11
26
21
0
31
0
0
LINE
8
WALLS
10
0
20
18
30
0
11
12
21
18
31
0
0
LINE
8
WALLS
10
26
20
8
30
0
11
40
21
8
31
0
0
CIRCLE
8
SERVICES
10
8
20
11
30
0
40
0.35
0
CIRCLE
8
SERVICES
10
20
20
11
30
0
40
0.35
0
CIRCLE
8
SERVICES
10
32
20
11
30
0
40
0.35
0
ARC
8
SERVICES
10
33
20
18
30
0
40
3
50
180
51
270
0
SPLINE
8
SERVICES
70
8
71
3
72
8
73
4
40
0
40
0
40
0
40
0
40
1
40
1
40
1
40
1
10
2
20
20
30
0
10
5
20
15
30
0
10
9
20
21
30
0
10
11
20
16
30
0
0
TEXT
8
TEXT
10
4
20
10
30
0
40
0.6
1
RECEPTION
0
TEXT
8
TEXT
10
16
20
6
30
0
40
0.6
1
CORE
0
TEXT
8
TEXT
10
30
20
16
30
0
40
0.6
1
RETAIL 01
0
TEXT
8
TEXT
10
30
20
4
30
0
40
0.6
1
BACK OF HOUSE
0
INSERT
8
DOORS
2
DOOR
10
12
20
4
30
0
50
0
0
INSERT
8
DOORS
2
DOOR
10
26
20
4
30
0
50
0
0
INSERT
8
DOORS
2
DOOR
10
12
20
16
30
0
50
0
0
INSERT
66
1
8
_WAYFINDING_SIGN
2
SIGN
10
3
20
19
30
0
41
1
42
1
43
1
50
0
0
ATTRIB
8
_WAYFINDING_SIGN
10
3
20
20.1
30
0
40
0.25
1
WF_01
2
NAME
70
0
0
SEQEND
8
_WAYFINDING_SIGN
0
INSERT
66
1
8
_WAYFINDING_SIGN
2
SIGN
10
11
20
2
30
0
41
1
42
1
43
1
50
0
0
ATTRIB
8
_WAYFINDING_SIGN
10
11
20
3.1
30
0
40
0.25
1
WF_02
2
NAME
70
0
0
SEQEND
8
_WAYFINDING_SIGN
0
INSERT
66
1
8
_WAYFINDING_SIGN
2
SIGN
10
25
20
12
30
0
41
1
42
1
43
1
50
90
0
ATTRIB
8
_WAYFINDING_SIGN
10
25
20
13.1
30
0
40
0.25
1
WF_03
2
NAME
70
0
0
SEQEND
8
_WAYFINDING_SIGN
0
INSERT
66
1
8
_WAYFINDING_SIGN
2
SIGN
10
38
20
6
30
0
41
1
42
1
43
1
50
180
0
ATTRIB
8
_WAYFINDING_SIGN
10
38
20
7.1
30
0
40
0.25
1
WF_04
2
NAME
70
0
0
SEQEND
8
_WAYFINDING_SIGN
0
INSERT
66
1
8
_DIRECTIONAL_SIGN
2
SIGN
10
6
20
4
30
0
41
1
42
1
43
1
50
0
0
ATTRIB
8
_DIRECTIONAL_SIGN
10
6
20
5.1
30
0
40
0.25
1
DIR_01
2
NAME
70
0
0
SEQEND
8
_DIRECTIONAL_SIGN
0
INSERT
66
1
8
_DIRECTIONAL_SIGN
2
SIGN
10
18
20
13
30
0
41
1
42
1
43
1
50
0
0
ATTRIB
8
_DIRECTIONAL_SIGN
10
18
20
14.1
30
0
40
0.25
1
DIR_02
2
NAME
70
0
0
SEQEND
8
_DIRECTIONAL_SIGN
0
INSERT
66
1
8
_DIRECTIONAL_SIGN
2
SIGN
10
34
20
10
30
0
41
1
42
1
43
1
50
270
0
ATTRIB
8
_DIRECTIONAL_SIGN
10
34
20
11.1
30
0
40
0.25
1
DIR_03
2
NAME
70
0
0
SEQEND
8
_DIRECTIONAL_SIGN
0
INSERT
66
1
8
_IDENTIFICATION_SIGN
2
SIGN
10
2
20
12
30
0
41
1
42
1
43
1
50
0
0
ATTRIB
8
_IDENTIFICATION_SIGN
10
2
20
13.1
30
0
40
0.25
1
ID_01
2
NAME
70
0
0
SEQEND
8
_IDENTIFICATION_SIGN
0
INSERT
66
1
8
_IDENTIFICATION_SIGN
2
SIGN
10
30
20
20
30
0
41
1
42
1
43
1
50
0
0
ATTRIB
8
_IDENTIFICATION_SIGN
10
30
20
21.1
30
0
40
0.25
1
ID_02
2
NAME
70
0
0
SEQEND
8
_IDENTIFICATION_SIGN
0
INSERT
66
1
8
_REGULATORY_SIGN
2
SIGN
10
20
20
2
30
0
41
1
42
1
43
1
50
0
0
ATTRIB
8
_REGULATORY_SIGN
10
20
20
3.1
30
0
40
0.25
1
REG_01
2
NAME
70
0
0
SEQEND
8
_REGULATORY_SIGN
0
INSERT
8
_WAYFINDING_SIGN
2
SIGN_ASSEMBLY
10
36
20
20
30
0
50
45
0
ENDSEC
0
EOF
